<svg width="200" height="200" viewBox="0 0 200 200" fill="none" xmlns="http://www.w3.org/2000/svg">
  <circle cx="100" cy="100" r="80" fill="#9C27B0" opacity="0.1"/>
  <circle cx="100" cy="100" r="60" fill="#9C27B0" opacity="0.2"/>
  <circle cx="100" cy="100" r="40" fill="#9C27B0" opacity="0.3"/>
  <circle cx="100" cy="100" r="20" fill="#9C27B0"/>
  <path d="M90 100C90 94.4772 94.4772 90 100 90C105.523 90 110 94.4772 110 100C110 105.523 105.523 110 100 110C94.4772 110 90 105.523 90 100Z" fill="white"/>
  <path d="M95 100C95 97.2386 97.2386 95 100 95C102.761 95 105 97.2386 105 100C105 102.761 102.761 105 100 105C97.2386 105 95 102.761 95 100Z" fill="#9C27B0"/>
  <path d="M85 100L95 110L115 90" stroke="white" stroke-width="2" stroke-linecap="round" stroke-linejoin="round"/>
</svg>
